HIERARCHY
ROOT Hips
{
	OFFSET 0.000000 0.000000 0.000000
	CHANNELS 6 Xposition Yposition Zposition Zrotation Yrotation Xrotation 
	JOINT LHipJoint
	{
		OFFSET 0.000000 0.000000 0.000000
		CHANNELS 3 Zrotation Yrotation Xrotation
		JOINT LeftUpLeg
		{
			OFFSET 1.363060 -1.794630 0.839290
			CHANNELS 3 Zrotation Yrotation Xrotation
			JOINT LeftLeg
			{
				OFFSET 2.448110 -6.726130 0.000000
				CHANNELS 3 Zrotation Yrotation Xrotation
				JOINT LeftFoot
				{
					OFFSET 2.562200 -7.039590 0.000000
					CHANNELS 3 Zrotation Yrotation Xrotation
					JOINT LeftToeBase
					{
						OFFSET 0.157640 -0.433110 2.322550
						CHANNELS 3 Zrotation Yrotation Xrotation
						End Site
						{
							OFFSET 0.000000 0.000000 0.000000
						}
					}
				}
			}
		}
	}
	JOINT RHipJoint
	{
		OFFSET 0.000000 0.000000 0.000000
		CHANNELS 3 Zrotation Yrotation Xrotation
		JOINT RightUpLeg
		{
			OFFSET -1.305520 -1.794630 0.839290
			CHANNELS 3 Zrotation Yrotation Xrotation
			JOINT RightLeg
			{
				OFFSET -2.542530 -6.985550 0.000000
				CHANNELS 3 Zrotation Yrotation Xrotation
				JOINT RightFoot
				{
					OFFSET -2.568260 -7.056230 0.000000
					CHANNELS 3 Zrotation Yrotation Xrotation
					JOINT RightToeBase
					{
						OFFSET -0.164730 -0.452590 2.363150
						CHANNELS 3 Zrotation Yrotation Xrotation
						End Site
						{
							OFFSET 0.000000 0.000000 0.000000
						}
					}
				}
			}
		}
	}
}
MOTION
Frames: 19
Frame Time: 0.008333
-1.076616 16.523480 -1.023721 -153.098148 74.153249 -155.158442 -10.520461 2.350270 0.433529 -24.660609 18.569705 -25.146167 -2.799472 -0.350263 15.501431 2.979506 13.590792 -17.967407 177.355900 -0.000000 -8.815300 9.674674 -4.495012 -2.566470 -5.378502 -25.228480 6.091553 -0.293625 -2.599325 38.160745 -0.596260 10.425841 29.380354 6.363300 -0.000001 -92.326500
-0.885286 16.491205 -1.096858 -153.213005 73.934556 -155.234919 -10.520687 2.333069 0.456732 -24.401148 17.947967 -24.607313 -2.747215 -0.305098 16.443493 3.127248 14.028808 -19.177991 176.940900 0.000000 -11.775100 9.813865 -4.377705 -2.506595 -5.715828 -24.626821 4.833822 -0.422276 -2.639974 40.909506 -0.760700 11.390876 31.710246 7.360400 -0.000000 -90.440200
-0.697849 16.460555 -1.167971 -153.579148 73.717022 -155.505317 -10.492682 2.329559 0.464460 -24.274806 17.363086 -24.194763 -2.708450 -0.244801 17.525154 3.280705 14.474966 -20.403865 176.501900 -0.000000 -14.019400 9.956689 -4.245952 -2.424296 -5.920572 -23.860738 3.397302 -0.536209 -2.684345 43.686405 -0.927256 11.598095 33.493513 7.838300 0.000001 -87.704200
-0.514626 16.432345 -1.237257 -154.193764 73.482363 -155.968245 -10.441273 2.338301 0.461358 -24.264215 16.799067 -23.873947 -2.680660 -0.173443 18.688041 3.434157 14.911387 -21.604529 176.054300 -0.000001 -15.692800 10.100488 -4.104451 -2.323387 -6.003001 -22.955331 1.804841 -0.645627 -2.739771 46.450899 -1.089598 11.000902 34.643801 7.701100 -0.000000 -84.291499
-0.335798 16.407353 -1.305170 -155.032643 73.211000 -156.604825 -10.373522 2.356795 0.451760 -24.344307 16.242383 -23.600109 -2.660460 -0.096166 19.861428 3.580201 15.317354 -22.729153 175.619700 -0.000000 -16.811700 10.241894 -3.955734 -2.207431 -5.975336 -21.933363 0.092384 -0.758921 -2.808423 49.140079 -1.246675 9.633600 35.122899 6.951700 0.000000 -80.667800
-0.161422 16.386244 -1.372347 -156.054264 72.884998 -157.381273 -10.297059 2.381427 0.439484 -24.485511 15.682946 -23.324079 -2.645225 -0.019537 20.969724 3.712077 15.670534 -23.743227 175.217800 -0.000000 -17.485700 10.376745 -3.801107 -2.079721 -5.852376 -20.813964 -1.697521 -0.880592 -2.889138 51.688786 -1.397895 7.620001 34.915983 5.692100 -0.000000 -77.065600
0.008587 16.369527 -1.439716 -157.199626 72.489316 -158.249338 -10.219787 2.408273 0.427393 -24.656162 15.116359 -22.996397 -2.633172 0.049634 21.940378 3.823576 15.948904 -24.622039 174.866600 -0.000000 -17.805200 10.500066 -3.641519 -1.943113 -5.649231 -19.613994 -3.518260 -1.010487 -2.978077 54.027496 -1.542117 5.145996 34.044287 4.095700 -0.000000 -73.669900
0.174465 16.357561 -1.508280 -158.401515 72.014262 -159.153138 -10.148977 2.433675 0.417068 -24.826104 14.543012 -22.573047 -2.623394 0.105171 22.709951 3.909703 16.134423 -25.349157 174.581500 -0.000000 -17.834800 10.606687 -3.477839 -1.799871 -5.381087 -18.346535 -5.323666 -1.144216 -3.069696 56.088544 -1.677359 2.425979 32.566994 2.365500 0.000000 -70.605301
0.336532 16.350448 -1.579111 -159.589514 71.454562 -160.034112 -10.090841 2.454395 0.409980 -24.967216 13.965926 -22.020750 -2.615640 0.141968 23.231555 3.967753 16.215241 -25.924358 174.370300 0.000000 -17.669100 10.691552 -3.311729 -1.650684 -5.059834 -17.021955 -7.074036 -1.274250 -3.157551 57.813836 -1.801096 -0.331387 30.576326 0.693001 -0.000000 -67.942500
0.495158 16.348085 -1.653174 -160.704214 70.810768 -160.841104 -10.049845 2.468189 0.407355 -25.058209 13.386697 -21.319367 -2.609691 0.156658 23.476064 3.997360 16.189128 -26.354165 174.235101 -0.000000 -17.394900 10.750784 -3.145008 -1.496170 -4.697859 -15.650757 -8.743164 -1.391677 -3.236159 59.168559 -1.909019 -2.938124 28.169111 -0.766800 0.000000 -65.397500
0.650752 16.350161 -1.731346 -161.691055 70.086278 -161.525129 -10.030066 2.473256 0.410462 -25.080615 12.808551 -20.467516 -2.604668 0.148057 23.438757 3.999480 16.060277 -26.648801 174.173300 0.000000 -17.057200 10.780416 -2.979596 -1.332552 -4.294858 -14.231171 -10.311558 -1.486644 -3.298062 60.116345 -2.001849 -5.278918 25.517695 -1.932100 0.000000 -63.332500
0.803752 16.356168 -1.814198 -162.521888 69.287137 -162.059011 -10.033438 2.469112 0.421389 -25.025357 12.228955 -19.476843 -2.599337 0.116763 23.133032 3.977384 15.841872 -26.825650 174.176399 -0.000000 -16.737000 10.778691 -2.817342 -1.158778 -3.856768 -12.771963 -11.782709 -1.552290 -3.340585 60.670443 -2.074955 -7.258075 22.718302 -2.761600 0.000000 -61.195600
0.954608 16.365518 -1.901968 -163.179124 68.419407 -162.422883 -10.061896 2.455653 0.442062 -24.885562 11.647647 -18.375289 -2.591761 0.065408 22.594077 3.934149 15.547837 -26.899712 174.235300 0.000000 -16.451500 10.743874 -2.659247 -0.969351 -3.378236 -11.268073 -13.163464 -1.583825 -3.359339 60.836986 -2.131408 -8.865845 19.940124 -3.286400 0.000000 -59.366100
1.103684 16.377486 -1.994517 -163.669189 67.487662 -162.618750 -10.115691 2.433871 0.474775 -24.661580 11.060510 -17.197696 -2.580008 -0.001930 21.870517 3.873541 15.194424 -26.888474 174.338600 0.000000 -16.227400 10.676274 -2.505805 -0.761732 -2.860867 -9.724478 -14.475000 -1.580788 -3.354294 60.657051 -2.171437 -10.111456 17.275433 -3.556000 -0.000000 -57.631900
1.251437 16.391369 -2.091329 -164.014579 66.494442 -162.663244 -10.193834 2.405508 0.521438 -24.358269 10.463765 -15.982443 -2.562624 -0.080212 21.019886 3.798765 14.794591 -26.808737 174.476400 -0.000000 -16.065000 10.577470 -2.356709 -0.533355 -2.308005 -8.145498 -15.740648 -1.545871 -3.326572 60.176993 -2.198456 -11.043326 14.805345 -3.639400 0.000000 -56.039500
1.398229 16.406477 -2.191565 -164.251670 65.438804 -162.587968 -10.293668 2.373002 0.583325 -23.985608 9.852749 -14.764112 -2.538874 -0.163999 20.100707 3.712656 14.359232 -26.675443 174.639800 -0.000000 -15.948700 10.450719 -2.210956 -0.284398 -1.731044 -6.543739 -16.985347 -1.483814 -3.279533 59.453529 -2.215737 -11.718530 12.558343 -3.598000 -0.000000 -54.456500
1.544444 16.422162 -2.294136 -164.427503 64.317804 -162.437007 -10.410297 2.339008 0.660934 -23.558026 9.221820 -13.567981 -2.509074 -0.248319 19.165846 3.617563 13.895325 -26.502857 174.821300 -0.000000 -15.860299 10.300942 -2.066946 -0.016382 -1.148360 -4.936401 -18.227919 -1.400484 -3.216915 58.536877 -2.229215 -12.209043 10.554506 -3.488399 -0.000000 -53.003800
1.690440 16.437862 -2.397915 -164.591866 63.126372 -162.260222 -10.537032 2.306342 0.754084 -23.093759 8.563531 -12.405917 -2.474281 -0.329112 18.255537 3.515673 13.409187 -26.301667 175.015200 0.000001 -15.778700 10.134446 -1.922765 0.265563 -0.586233 -3.353265 -19.482127 -1.301404 -3.143242 57.474964 -2.243857 -12.576112 8.775121 -3.347400 0.000001 -51.647100
1.836519 16.453100 -2.501833 -164.791001 61.859433 -162.107127 -10.665782 2.277698 0.862219 -22.613469 7.868460 -11.275005 -2.436055 -0.403660 17.393587 3.409012 12.906744 -26.078610 175.216900 0.000000 -15.681800 9.958494 -1.776487 0.553322 -0.073605 -1.835710 -20.754040 -1.191258 -3.062594 56.305700 -2.264253 -12.870679 7.191480 -3.198000 -0.000000 -50.375200
